<svg width="32" height="32" viewBox="0 0 114 114" fill="none" xmlns="http://www.w3.org/2000/svg">
<path fill-rule="evenodd" clip-rule="evenodd" d="M45.9289 9.96148C55.0664 -1.96558 85.2671 -5.77327 98.2106 13.2613C116.221 24.1138 114.555 42.8088 111.368 52.5276C110.876 54.0275 109.241 54.7568 107.825 54.0598C103.402 51.883 96.7785 47.2356 93.1348 40.9245C88.6803 33.2091 87.8948 23.9202 88.0589 20.3671C86.5359 18.3365 81.9673 13.0075 70.0394 12.4999C51.7663 12.5 48.1861 26.8528 51.0048 47.5236C53.0811 62.7512 37.8075 67.3197 32.4798 66.812C29.9513 66.5711 22.8341 66.3039 22.3265 56.6583C21.9205 48.9419 27.7401 45.66 30.7007 44.9837C23.5945 48.7906 28.0625 63.7991 38.0613 56.6583C45.9289 51.0394 31.3024 29.0533 45.9289 9.96148ZM102.525 32.5497C100.563 32.5498 98.972 34.1405 98.972 36.1029C98.972 38.0652 100.563 39.6559 102.525 39.656C104.488 39.656 106.078 38.0652 106.078 36.1029C106.078 34.1405 104.487 32.5497 102.525 32.5497Z" fill="#00FF85"/>
<path fill-rule="evenodd" clip-rule="evenodd" d="M103.795 66.2236C109.555 80.1005 97.7521 108.159 74.7959 109.851C56.3921 120.022 41.0351 109.231 34.2117 101.612C33.1587 100.436 33.3447 98.6557 34.6564 97.7777C38.753 95.0359 46.0894 91.6236 53.3769 91.6236C62.2856 91.6236 70.7224 95.5875 73.7176 97.5062C76.2373 97.2026 83.1371 95.9112 89.5409 85.8347C98.6775 70.0097 88.0377 59.7327 68.7268 51.8384C54.5012 46.0228 58.1816 30.5113 61.2851 26.151C62.7579 24.0819 66.5479 18.0517 75.1551 22.4349C82.0407 25.9416 81.9731 32.6224 81.0785 35.5245C81.3347 27.4669 66.103 23.832 67.2877 36.0617C68.2202 45.6845 94.5738 44.0108 103.795 66.2236ZM55.9344 103.943C56.9156 102.244 56.3333 100.071 54.6339 99.0896C52.9344 98.1085 50.7614 98.6907 49.7802 100.39C48.7991 102.09 49.3813 104.263 51.0807 105.244C52.7801 106.225 54.9532 105.643 55.9344 103.943Z" fill="#00FF85"/>
<path fill-rule="evenodd" clip-rule="evenodd" d="M26.1369 88.2061C11.239 86.2563 -7.15882 62.0056 2.85378 41.2788C3.24708 20.2551 20.2707 12.3509 30.2808 10.2512C31.8257 9.92728 33.2749 10.9786 33.3794 12.5536C33.7055 17.4724 32.9925 25.532 29.3487 31.8431C24.8943 39.5583 17.2431 44.8828 14.0839 46.5174C13.0869 48.8514 10.7554 55.4725 16.28 66.0565C25.4166 81.8814 39.6367 77.8057 56.1287 65.0292C68.2781 55.6172 79.8713 66.5603 82.0955 71.4281C83.1511 73.7383 86.4782 80.0357 78.3787 85.298C71.8992 89.5077 66.1472 86.1088 64.0811 83.883C70.9311 88.1336 81.6948 76.7601 70.5113 71.6713C61.7115 67.6671 49.9842 91.3271 26.1369 88.2061ZM17.4008 27.8982C18.382 29.5975 20.5551 30.1798 22.2544 29.1987C23.9538 28.2175 24.5361 26.0444 23.555 24.345C22.5738 22.6456 20.4008 22.0633 18.7013 23.0445C17.0019 24.0257 16.4196 26.1987 17.4008 27.8982Z" fill="#00FF85"/>
</svg>
